# xmcd
#
# Track frame offsets:
#	150
#	13672
#	23312
#	36299
#	53474
#	67363
#	81077
#	95774
#	108000
#	121800
#	138276
#
# Disc length: 2108 seconds
#
# Revision: 1
# Processed by: cddbd v1.5.2PL0 Copyright (c) Steve Scherf et al.
# Submitted via: audiograbber 1.83.01
#
DISCID=83083a0b
DTITLE=Blooddawn - Metallic Warfare
DYEAR=2008
DGENRE=Thrash Metal
TTITLE0=Intro - We'll prevail
TTITLE1=Heavy Metal Fuck
TTITLE2=Metallic Studs
TTITLE3=Inverted
TTITLE4=Club d'amour
TTITLE5=Pagan storms unleashed by Odins frostdick
TTITLE6=Bitching Metal
TTITLE7=St. Pölten - Open All Night
TTITLE8=Farewell to sanity
TTITLE9=Puke
TTITLE10=Perished in fire
EXTD=
EXTT0=
EXTT1=
EXTT2=
EXTT3=
EXTT4=
EXTT5=
EXTT6=
EXTT7=
EXTT8=
EXTT9=
EXTT10=
PLAYORDER=
